<?xml version="1.0" encoding="UTF-8" standalone="no"?>
<svg
   xmlns:ns3="http://www.iki.fi/pav/software/textext/"
   xmlns:dc="http://purl.org/dc/elements/1.1/"
   xmlns:cc="http://creativecommons.org/ns#"
   xmlns:rdf="http://www.w3.org/1999/02/22-rdf-syntax-ns#"
   xmlns:svg="http://www.w3.org/2000/svg"
   xmlns="http://www.w3.org/2000/svg"
   xmlns:sodipodi="http://sodipodi.sourceforge.net/DTD/sodipodi-0.dtd"
   xmlns:inkscape="http://www.inkscape.org/namespaces/inkscape"
   width="1200"
   height="600"
   viewBox="0 0 317.50176 158.75036"
   version="1.1"
   id="svg8"
   inkscape:version="1.0.2 (1.0.2+r75+1)"
   sodipodi:docname="axis_deflection_schematic.svg"
   inkscape:export-filename="/home/dieu/mimuralab/bthesis/paper/thesis/chap2/figure/error_types/axis_deflection_schematic.png"
   inkscape:export-xdpi="96"
   inkscape:export-ydpi="96">
  <defs
     id="defs2">
    <marker
       style="overflow:visible"
       id="Arrow2Mend"
       refX="0"
       refY="0"
       orient="auto"
       inkscape:stockid="Arrow2Mend"
       inkscape:isstock="true">
      <path
         transform="scale(-0.6)"
         d="M 8.7185878,4.0337352 -2.2072895,0.01601326 8.7185884,-4.0017078 c -1.7454984,2.3720609 -1.7354408,5.6174519 -6e-7,8.035443 z"
         style="fill:#000000;fill-opacity:1;fill-rule:evenodd;stroke:#000000;stroke-width:0.625;stroke-linejoin:round;stroke-opacity:1"
         id="path861" />
    </marker>
    <marker
       style="overflow:visible"
       id="Arrow2Send"
       refX="0"
       refY="0"
       orient="auto"
       inkscape:stockid="Arrow2Send"
       inkscape:isstock="true">
      <path
         transform="matrix(-0.3,0,0,-0.3,0.69,0)"
         d="M 8.7185878,4.0337352 -2.2072895,0.01601326 8.7185884,-4.0017078 c -1.7454984,2.3720609 -1.7354408,5.6174519 -6e-7,8.035443 z"
         style="fill:#000000;fill-opacity:1;fill-rule:evenodd;stroke:#000000;stroke-width:0.625;stroke-linejoin:round;stroke-opacity:1"
         id="path867" />
    </marker>
    <marker
       style="overflow:visible"
       id="Arrow2Lend"
       refX="0"
       refY="0"
       orient="auto"
       inkscape:stockid="Arrow2Lend"
       inkscape:isstock="true">
      <path
         transform="matrix(-1.1,0,0,-1.1,-1.1,0)"
         d="M 8.7185878,4.0337352 -2.2072895,0.01601326 8.7185884,-4.0017078 c -1.7454984,2.3720609 -1.7354408,5.6174519 -6e-7,8.035443 z"
         style="fill:#000000;fill-opacity:1;fill-rule:evenodd;stroke:#000000;stroke-width:0.625;stroke-linejoin:round;stroke-opacity:1"
         id="path855" />
    </marker>
    <marker
       style="overflow:visible"
       id="Arrow2Mend-8"
       refX="0"
       refY="0"
       orient="auto"
       inkscape:stockid="Arrow2Mend"
       inkscape:isstock="true">
      <path
         transform="scale(-0.6)"
         d="M 8.7185878,4.0337352 -2.2072895,0.01601326 8.7185884,-4.0017078 c -1.7454984,2.3720609 -1.7354408,5.6174519 -6e-7,8.035443 z"
         style="fill:#000000;fill-opacity:1;fill-rule:evenodd;stroke:#000000;stroke-width:0.625;stroke-linejoin:round;stroke-opacity:1"
         id="path861-0" />
    </marker>
    <marker
       style="overflow:visible"
       id="Arrow2Mend-2"
       refX="0"
       refY="0"
       orient="auto"
       inkscape:stockid="Arrow2Mend"
       inkscape:isstock="true">
      <path
         transform="scale(-0.6)"
         d="M 8.7185878,4.0337352 -2.2072895,0.01601326 8.7185884,-4.0017078 c -1.7454984,2.3720609 -1.7354408,5.6174519 -6e-7,8.035443 z"
         style="fill:#000000;fill-opacity:1;fill-rule:evenodd;stroke:#000000;stroke-width:0.625;stroke-linejoin:round;stroke-opacity:1"
         id="path861-5" />
    </marker>
    <marker
       style="overflow:visible"
       id="Arrow2Mend-9"
       refX="0"
       refY="0"
       orient="auto"
       inkscape:stockid="Arrow2Mend"
       inkscape:isstock="true">
      <path
         transform="scale(-0.6)"
         d="M 8.7185878,4.0337352 -2.2072895,0.01601326 8.7185884,-4.0017078 c -1.7454984,2.3720609 -1.7354408,5.6174519 -6e-7,8.035443 z"
         style="fill:#000000;fill-opacity:1;fill-rule:evenodd;stroke:#000000;stroke-width:0.625;stroke-linejoin:round;stroke-opacity:1"
         id="path861-9" />
    </marker>
    <marker
       style="overflow:visible"
       id="Arrow2Mend-2-3"
       refX="0"
       refY="0"
       orient="auto"
       inkscape:stockid="Arrow2Mend"
       inkscape:isstock="true">
      <path
         transform="scale(-0.6)"
         d="M 8.7185878,4.0337352 -2.2072895,0.01601326 8.7185884,-4.0017078 c -1.7454984,2.3720609 -1.7354408,5.6174519 -6e-7,8.035443 z"
         style="fill:#000000;fill-opacity:1;fill-rule:evenodd;stroke:#000000;stroke-width:0.625;stroke-linejoin:round;stroke-opacity:1"
         id="path861-5-6" />
    </marker>
    <g
       id="id-c969fce0-a7dc-48a5-8a81-3546904ac219-1">
      <symbol
         overflow="visible"
         id="id-d9a048b2-0c8f-4612-ae3d-420207beb2d7-7">
        <path
           style="stroke:none;stroke-width:0"
           d=""
           id="id-6e45d64e-7b9b-4244-815a-96712afce511-4" />
      </symbol>
      <symbol
         overflow="visible"
         id="id-f5cbc00a-e3f5-4664-953d-cf8ae68ebfde-3">
        <path
           style="stroke:none;stroke-width:0"
           d="M 2.625,-4.359375 C 1.390625,-4.0625 0.421875,-2.765625 0.421875,-1.5625 0.421875,-0.59375 1.0625,0.125 2,0.125 c 1.15625,0 1.984375,-1.578125 1.984375,-2.953125 0,-0.90625 -0.390625,-1.40625 -0.734375,-1.84375 C 2.890625,-5.125 2.296875,-5.875 2.296875,-6.3125 c 0,-0.21875 0.203125,-0.453125 0.546875,-0.453125 0.3125,0 0.5,0.125 0.71875,0.265625 0.203125,0.125 0.390625,0.25 0.546875,0.25 C 4.359375,-6.25 4.5,-6.484375 4.5,-6.65625 4.5,-6.875 4.34375,-6.890625 3.984375,-6.984375 3.46875,-7.09375 3.328125,-7.09375 3.171875,-7.09375 c -0.78125,0 -1.140625,0.4375 -1.140625,1.03125 0,0.546875 0.296875,1.09375 0.59375,1.703125 z m 0.125,0.21875 c 0.25,0.46875 0.546875,1 0.546875,1.71875 0,0.65625 -0.375,2.328125 -1.296875,2.328125 -0.546875,0 -0.96875,-0.421875 -0.96875,-1.1875 0,-0.625 0.375,-2.5 1.71875,-2.859375 z m 0,0"
           id="id-7f3832e1-802d-4d78-95af-b97e5dd24b61-1" />
      </symbol>
      <symbol
         overflow="visible"
         id="id-bf34ca3a-0c6b-45e1-b887-7e4aaffeeb0d-4">
        <path
           style="stroke:none;stroke-width:0"
           d=""
           id="id-61c26b94-1056-4e2e-8358-f5a0ce4cc99a-6" />
      </symbol>
      <symbol
         overflow="visible"
         id="id-459ba3e1-2655-44b1-afd0-a21162b03848-9">
        <path
           style="stroke:none;stroke-width:0"
           d="m 1.9375,1.09375 c -0.453125,0 -0.515625,0 -0.515625,-0.296875 v -1.125 C 1.453125,-0.296875 1.78125,0.0625 2.359375,0.0625 3.28125,0.0625 4.0625,-0.625 4.0625,-1.5 c 0,-0.859375 -0.703125,-1.578125 -1.59375,-1.578125 -0.390625,0 -0.796875,0.15625 -1.078125,0.4375 v -0.4375 L 0.34375,-3 v 0.25 c 0.484375,0 0.515625,0.046875 0.515625,0.328125 v 3.21875 c 0,0.296875 -0.0625,0.296875 -0.515625,0.296875 v 0.265625 c 0.015625,0 0.5,-0.03125 0.796875,-0.03125 0.25,0 0.734375,0.015625 0.796875,0.03125 z M 1.421875,-2.328125 C 1.625,-2.671875 2.03125,-2.84375 2.390625,-2.84375 c 0.59375,0 1.046875,0.609375 1.046875,1.34375 0,0.796875 -0.53125,1.375 -1.109375,1.375 -0.625,0 -0.890625,-0.53125 -0.90625,-0.578125 z m 0,0"
           id="id-aed1bd75-934b-4414-9f8b-d8be7aaafb3d-4" />
      </symbol>
      <symbol
         overflow="visible"
         id="id-3ef0d47c-f200-42cd-ad09-54a7c349a263-2">
        <path
           style="stroke:none;stroke-width:0"
           d="M 3.296875,-2.328125 C 3.5,-2.75 3.84375,-2.75 3.953125,-2.75 V -3 c -0.171875,0.015625 -0.34375,0.03125 -0.53125,0.03125 -0.1875,0 -0.4375,-0.015625 -0.625,-0.03125 v 0.25 c 0.296875,0.015625 0.296875,0.234375 0.296875,0.265625 0,0.03125 -0.015625,0.09375 -0.0625,0.203125 L 2.25,-0.5625 1.375,-2.453125 C 1.375,-2.46875 1.34375,-2.546875 1.34375,-2.59375 1.34375,-2.75 1.578125,-2.75 1.6875,-2.75 V -3 c -0.015625,0 -0.5,0.03125 -0.78125,0.03125 -0.21875,0 -0.484375,-0.015625 -0.6875,-0.03125 v 0.25 c 0.375,0 0.46875,0.015625 0.5625,0.25 l 1.109375,2.421875 C 1.921875,0 1.96875,0.0625 2.078125,0.0625 2.21875,0.0625 2.25,0 2.28125,-0.0625 Z m 0,0"
           id="id-3d0d30a8-0484-45f3-8998-4825b6fa76ce-2" />
      </symbol>
    </g>
    <marker
       style="overflow:visible"
       id="Arrow2Mend-8-1"
       refX="0"
       refY="0"
       orient="auto"
       inkscape:stockid="Arrow2Mend"
       inkscape:isstock="true">
      <path
         transform="scale(-0.6)"
         d="M 8.7185878,4.0337352 -2.2072895,0.01601326 8.7185884,-4.0017078 c -1.7454984,2.3720609 -1.7354408,5.6174519 -6e-7,8.035443 z"
         style="fill:#000000;fill-opacity:1;fill-rule:evenodd;stroke:#000000;stroke-width:0.625;stroke-linejoin:round;stroke-opacity:1"
         id="path861-0-0" />
    </marker>
    <marker
       style="overflow:visible"
       id="Arrow2Mend-6"
       refX="0"
       refY="0"
       orient="auto"
       inkscape:stockid="Arrow2Mend"
       inkscape:isstock="true">
      <path
         transform="scale(-0.6)"
         d="M 8.7185878,4.0337352 -2.2072895,0.01601326 8.7185884,-4.0017078 c -1.7454984,2.3720609 -1.7354408,5.6174519 -6e-7,8.035443 z"
         style="fill:#000000;fill-opacity:1;fill-rule:evenodd;stroke:#000000;stroke-width:0.625;stroke-linejoin:round;stroke-opacity:1"
         id="path861-3" />
    </marker>
    <g
       id="id-c969fce0-a7dc-48a5-8a81-3546904ac219">
      <symbol
         overflow="visible"
         id="id-d9a048b2-0c8f-4612-ae3d-420207beb2d7">
        <path
           style="stroke:none;stroke-width:0"
           d=""
           id="id-6e45d64e-7b9b-4244-815a-96712afce511" />
      </symbol>
      <symbol
         overflow="visible"
         id="id-f5cbc00a-e3f5-4664-953d-cf8ae68ebfde">
        <path
           style="stroke:none;stroke-width:0"
           d="M 2.625,-4.359375 C 1.390625,-4.0625 0.421875,-2.765625 0.421875,-1.5625 0.421875,-0.59375 1.0625,0.125 2,0.125 c 1.15625,0 1.984375,-1.578125 1.984375,-2.953125 0,-0.90625 -0.390625,-1.40625 -0.734375,-1.84375 C 2.890625,-5.125 2.296875,-5.875 2.296875,-6.3125 c 0,-0.21875 0.203125,-0.453125 0.546875,-0.453125 0.3125,0 0.5,0.125 0.71875,0.265625 0.203125,0.125 0.390625,0.25 0.546875,0.25 C 4.359375,-6.25 4.5,-6.484375 4.5,-6.65625 4.5,-6.875 4.34375,-6.890625 3.984375,-6.984375 3.46875,-7.09375 3.328125,-7.09375 3.171875,-7.09375 c -0.78125,0 -1.140625,0.4375 -1.140625,1.03125 0,0.546875 0.296875,1.09375 0.59375,1.703125 z m 0.125,0.21875 c 0.25,0.46875 0.546875,1 0.546875,1.71875 0,0.65625 -0.375,2.328125 -1.296875,2.328125 -0.546875,0 -0.96875,-0.421875 -0.96875,-1.1875 0,-0.625 0.375,-2.5 1.71875,-2.859375 z m 0,0"
           id="id-7f3832e1-802d-4d78-95af-b97e5dd24b61" />
      </symbol>
      <symbol
         overflow="visible"
         id="id-bf34ca3a-0c6b-45e1-b887-7e4aaffeeb0d">
        <path
           style="stroke:none;stroke-width:0"
           d=""
           id="id-61c26b94-1056-4e2e-8358-f5a0ce4cc99a" />
      </symbol>
      <symbol
         overflow="visible"
         id="id-459ba3e1-2655-44b1-afd0-a21162b03848">
        <path
           style="stroke:none;stroke-width:0"
           d="m 1.9375,1.09375 c -0.453125,0 -0.515625,0 -0.515625,-0.296875 v -1.125 C 1.453125,-0.296875 1.78125,0.0625 2.359375,0.0625 3.28125,0.0625 4.0625,-0.625 4.0625,-1.5 c 0,-0.859375 -0.703125,-1.578125 -1.59375,-1.578125 -0.390625,0 -0.796875,0.15625 -1.078125,0.4375 v -0.4375 L 0.34375,-3 v 0.25 c 0.484375,0 0.515625,0.046875 0.515625,0.328125 v 3.21875 c 0,0.296875 -0.0625,0.296875 -0.515625,0.296875 v 0.265625 c 0.015625,0 0.5,-0.03125 0.796875,-0.03125 0.25,0 0.734375,0.015625 0.796875,0.03125 z M 1.421875,-2.328125 C 1.625,-2.671875 2.03125,-2.84375 2.390625,-2.84375 c 0.59375,0 1.046875,0.609375 1.046875,1.34375 0,0.796875 -0.53125,1.375 -1.109375,1.375 -0.625,0 -0.890625,-0.53125 -0.90625,-0.578125 z m 0,0"
           id="id-aed1bd75-934b-4414-9f8b-d8be7aaafb3d" />
      </symbol>
      <symbol
         overflow="visible"
         id="id-3ef0d47c-f200-42cd-ad09-54a7c349a263">
        <path
           style="stroke:none;stroke-width:0"
           d="M 3.296875,-2.328125 C 3.5,-2.75 3.84375,-2.75 3.953125,-2.75 V -3 c -0.171875,0.015625 -0.34375,0.03125 -0.53125,0.03125 -0.1875,0 -0.4375,-0.015625 -0.625,-0.03125 v 0.25 c 0.296875,0.015625 0.296875,0.234375 0.296875,0.265625 0,0.03125 -0.015625,0.09375 -0.0625,0.203125 L 2.25,-0.5625 1.375,-2.453125 C 1.375,-2.46875 1.34375,-2.546875 1.34375,-2.59375 1.34375,-2.75 1.578125,-2.75 1.6875,-2.75 V -3 c -0.015625,0 -0.5,0.03125 -0.78125,0.03125 -0.21875,0 -0.484375,-0.015625 -0.6875,-0.03125 v 0.25 c 0.375,0 0.46875,0.015625 0.5625,0.25 l 1.109375,2.421875 C 1.921875,0 1.96875,0.0625 2.078125,0.0625 2.21875,0.0625 2.25,0 2.28125,-0.0625 Z m 0,0"
           id="id-3d0d30a8-0484-45f3-8998-4825b6fa76ce" />
      </symbol>
    </g>
  </defs>
  <sodipodi:namedview
     id="base"
     pagecolor="#ffffff"
     bordercolor="#666666"
     borderopacity="1.0"
     inkscape:pageopacity="0.0"
     inkscape:pageshadow="2"
     inkscape:zoom="0.7"
     inkscape:cx="775.64795"
     inkscape:cy="468.05419"
     inkscape:document-units="mm"
     inkscape:current-layer="layer1"
     showgrid="false"
     inkscape:window-width="1848"
     inkscape:window-height="1136"
     inkscape:window-x="72"
     inkscape:window-y="27"
     inkscape:window-maximized="1"
     units="px"
     inkscape:document-rotation="0" />
  <metadata
     id="metadata5">
    <rdf:RDF>
      <cc:Work
         rdf:about="">
        <dc:format>image/svg+xml</dc:format>
        <dc:type
           rdf:resource="http://purl.org/dc/dcmitype/StillImage" />
        <dc:title />
      </cc:Work>
    </rdf:RDF>
  </metadata>
  <g
     inkscape:label="Layer 1"
     inkscape:groupmode="layer"
     id="layer1"
     transform="translate(0,-177.93518)">
    <path
       style="fill:none;stroke:#000000;stroke-width:1.58751;stroke-linecap:butt;stroke-linejoin:miter;stroke-miterlimit:4;stroke-dasharray:12.7001, 6.35004;stroke-dashoffset:0;stroke-opacity:1"
       d="m 158.68913,312.25025 137.8299,-13.94781"
       id="path891-8-4-9"
       sodipodi:nodetypes="cc" />
    <path
       style="fill:none;stroke:#000000;stroke-width:1.58751;stroke-linecap:butt;stroke-linejoin:miter;stroke-miterlimit:4;stroke-dasharray:12.7001, 6.35004;stroke-dashoffset:0;stroke-opacity:1"
       d="m 21.42742,320.72097 137.26171,-8.47072"
       id="path891-0-2"
       sodipodi:nodetypes="cc" />
    <path
       style="fill:none;stroke:#000000;stroke-width:1.58751;stroke-linecap:butt;stroke-linejoin:miter;stroke-miterlimit:4;stroke-dasharray:12.7001, 6.35004;stroke-dashoffset:0;stroke-opacity:1"
       d="m 21.32766,199.44645 137.26171,8.47072"
       id="path891-0"
       sodipodi:nodetypes="cc" />
    <path
       style="fill:none;stroke:#000000;stroke-width:1.58751;stroke-linecap:butt;stroke-linejoin:miter;stroke-miterlimit:4;stroke-dasharray:12.7001, 6.35004;stroke-dashoffset:0;stroke-opacity:1"
       d="m 158.58937,207.91717 137.8299,13.94781"
       id="path891-8-4"
       sodipodi:nodetypes="cc" />
    <path
       style="fill:none;stroke:#000000;stroke-width:1.58751;stroke-linecap:butt;stroke-linejoin:miter;stroke-miterlimit:4;stroke-dasharray:none;stroke-opacity:1"
       d="m 21.32766,196.8006 c 49.147614,1.67797 100.33174,7.85903 137.26171,12.70408"
       id="path891"
       sodipodi:nodetypes="cc" />
    <path
       style="fill:none;stroke:#000000;stroke-width:1.58751;stroke-linecap:butt;stroke-linejoin:miter;stroke-miterlimit:4;stroke-dasharray:none;stroke-opacity:1"
       d="m 158.58937,209.50468 137.8299,9.18528"
       id="path891-8"
       sodipodi:nodetypes="cc" />
    <path
       style="fill:none;stroke:#000000;stroke-width:1.58751;stroke-linecap:butt;stroke-linejoin:miter;stroke-miterlimit:4;stroke-dasharray:none;stroke-opacity:1"
       d="m 21.42742,317.54595 c 43.899613,0.91762 87.93105,1.73012 137.16195,-1.60368"
       id="path891-5"
       sodipodi:nodetypes="cc" />
    <path
       style="fill:none;stroke:#000000;stroke-width:1.58751;stroke-linecap:butt;stroke-linejoin:miter;stroke-miterlimit:4;stroke-dasharray:none;stroke-opacity:1"
       d="m 158.58937,315.94227 c 46.28401,-4.54128 92.25509,-11.16316 137.92966,-19.75651"
       id="path891-8-0"
       sodipodi:nodetypes="cc" />
    <path
       style="fill:none;stroke:#000000;stroke-width:2.22301;stroke-linecap:butt;stroke-linejoin:miter;stroke-miterlimit:4;stroke-dasharray:4.44602, 8.89205;stroke-dashoffset:0;stroke-opacity:1"
       d="M 25.148504,260.81871 H 295.5342"
       id="path891-8-4-5"
       sodipodi:nodetypes="cc" />
    <path
       style="fill:none;stroke:#000000;stroke-width:2.22301;stroke-linecap:butt;stroke-linejoin:miter;stroke-miterlimit:4;stroke-dasharray:none;stroke-dashoffset:0;stroke-opacity:1"
       d="m 25.148502,255.52701 c 91.321878,17.10508 181.298768,18.32324 270.385698,0"
       id="path891-8-4-5-3"
       sodipodi:nodetypes="cc" />
    <path
       style="fill:none;stroke:#000000;stroke-width:1.8521;stroke-linecap:butt;stroke-linejoin:miter;stroke-miterlimit:4;stroke-dasharray:none;stroke-opacity:1;marker-end:url(#Arrow2Mend-6)"
       d="M 162.46868,292.18744 V 274.47059"
       id="path832-2"
       sodipodi:nodetypes="cc" />
    <path
       style="fill:none;stroke:#000000;stroke-width:1.8521;stroke-linecap:butt;stroke-linejoin:miter;stroke-miterlimit:4;stroke-dasharray:none;stroke-opacity:1;marker-end:url(#Arrow2Mend-8-1)"
       d="m 162.46868,235.58694 v 17.71685"
       id="path832-4"
       sodipodi:nodetypes="cc" />
    <g
       transform="matrix(2.82223,0,0,2.82223,171.60319,226.95915)"
       ns3:version="1.3.0"
       ns3:texconverter="pdflatex"
       ns3:pdfconverter="inkscape"
       ns3:text="$\\delta_{\\mathrm{pv}}$"
       ns3:preamble="/home/dieu/.config/inkscape/extensions/textext/default_packages.tex"
       ns3:scale="8.0"
       ns3:alignment="middle center"
       ns3:inkscapeversion="1.0.2"
       ns3:jacobian_sqrt="2.82223"
       id="g1320">
      <defs
         id="id-cce43d68-8bf2-4fdf-a741-2775226c66af">
        <g
           id="id-45050868-2f12-403b-8ec6-6db0f726883f">
          <symbol
             overflow="visible"
             id="id-8cc49f80-f2fa-4a8a-9823-37655620f117">
            <path
               style="stroke:none"
               d=""
               id="id-8fb9350c-8d73-4689-8a26-a1a9fe550f12" />
          </symbol>
          <symbol
             overflow="visible"
             id="id-c9e38d65-6e85-49b4-be1b-90e6b43025d7">
            <path
               style="stroke:none"
               d="M 2.625,-4.359375 C 1.390625,-4.0625 0.421875,-2.765625 0.421875,-1.5625 0.421875,-0.59375 1.0625,0.125 2,0.125 c 1.15625,0 1.984375,-1.578125 1.984375,-2.953125 0,-0.90625 -0.390625,-1.40625 -0.734375,-1.84375 C 2.890625,-5.125 2.296875,-5.875 2.296875,-6.3125 c 0,-0.21875 0.203125,-0.453125 0.546875,-0.453125 0.3125,0 0.5,0.125 0.71875,0.265625 0.203125,0.125 0.390625,0.25 0.546875,0.25 C 4.359375,-6.25 4.5,-6.484375 4.5,-6.65625 4.5,-6.875 4.34375,-6.890625 3.984375,-6.984375 3.46875,-7.09375 3.328125,-7.09375 3.171875,-7.09375 c -0.78125,0 -1.140625,0.4375 -1.140625,1.03125 0,0.546875 0.296875,1.09375 0.59375,1.703125 z m 0.125,0.21875 c 0.25,0.46875 0.546875,1 0.546875,1.71875 0,0.65625 -0.375,2.328125 -1.296875,2.328125 -0.546875,0 -0.96875,-0.421875 -0.96875,-1.1875 0,-0.625 0.375,-2.5 1.71875,-2.859375 z m 0,0"
               id="id-e12e3a4e-fbe1-4c97-bc2c-ca7660dd330a" />
          </symbol>
          <symbol
             overflow="visible"
             id="id-ea3189f1-02a6-4d3a-80ca-9c84124e7161">
            <path
               style="stroke:none"
               d=""
               id="id-a8b0d71f-928f-47a3-959b-cb13e5917381" />
          </symbol>
          <symbol
             overflow="visible"
             id="id-14ce5502-cc79-4e54-bb73-58f7eb36ceea">
            <path
               style="stroke:none"
               d="m 1.9375,1.09375 c -0.453125,0 -0.515625,0 -0.515625,-0.296875 v -1.125 C 1.453125,-0.296875 1.78125,0.0625 2.359375,0.0625 3.28125,0.0625 4.0625,-0.625 4.0625,-1.5 c 0,-0.859375 -0.703125,-1.578125 -1.59375,-1.578125 -0.390625,0 -0.796875,0.15625 -1.078125,0.4375 v -0.4375 L 0.34375,-3 v 0.25 c 0.484375,0 0.515625,0.046875 0.515625,0.328125 v 3.21875 c 0,0.296875 -0.0625,0.296875 -0.515625,0.296875 v 0.265625 c 0.015625,0 0.5,-0.03125 0.796875,-0.03125 0.25,0 0.734375,0.015625 0.796875,0.03125 z M 1.421875,-2.328125 C 1.625,-2.671875 2.03125,-2.84375 2.390625,-2.84375 c 0.59375,0 1.046875,0.609375 1.046875,1.34375 0,0.796875 -0.53125,1.375 -1.109375,1.375 -0.625,0 -0.890625,-0.53125 -0.90625,-0.578125 z m 0,0"
               id="id-51e71f6c-d727-453a-beb9-939f39176650" />
          </symbol>
          <symbol
             overflow="visible"
             id="id-d7a738d2-c5ee-4827-9743-11a0462ee6ac">
            <path
               style="stroke:none"
               d="M 3.296875,-2.328125 C 3.5,-2.75 3.84375,-2.75 3.953125,-2.75 V -3 c -0.171875,0.015625 -0.34375,0.03125 -0.53125,0.03125 -0.1875,0 -0.4375,-0.015625 -0.625,-0.03125 v 0.25 c 0.296875,0.015625 0.296875,0.234375 0.296875,0.265625 0,0.03125 -0.015625,0.09375 -0.0625,0.203125 L 2.25,-0.5625 1.375,-2.453125 C 1.375,-2.46875 1.34375,-2.546875 1.34375,-2.59375 1.34375,-2.75 1.578125,-2.75 1.6875,-2.75 V -3 c -0.015625,0 -0.5,0.03125 -0.78125,0.03125 -0.21875,0 -0.484375,-0.015625 -0.6875,-0.03125 v 0.25 c 0.375,0 0.46875,0.015625 0.5625,0.25 l 1.109375,2.421875 C 1.921875,0 1.96875,0.0625 2.078125,0.0625 2.21875,0.0625 2.25,0 2.28125,-0.0625 Z m 0,0"
               id="id-7d1dc987-3723-41ef-99e2-95b5c48075e4" />
          </symbol>
        </g>
      </defs>
      <g
         id="id-23825fb3-40be-4636-a2f0-385778a386ad"
         transform="translate(-149.134,-127.671)">
        <g
           style="fill:#000000;fill-opacity:1"
           id="id-5c1e7a81-6091-4aec-a3cb-981a52e6c116">
          <g
             transform="translate(148.712,134.765)"
             id="g1798">
            <path
               style="stroke:none"
               d="M 2.625,-4.359375 C 1.390625,-4.0625 0.421875,-2.765625 0.421875,-1.5625 0.421875,-0.59375 1.0625,0.125 2,0.125 c 1.15625,0 1.984375,-1.578125 1.984375,-2.953125 0,-0.90625 -0.390625,-1.40625 -0.734375,-1.84375 C 2.890625,-5.125 2.296875,-5.875 2.296875,-6.3125 c 0,-0.21875 0.203125,-0.453125 0.546875,-0.453125 0.3125,0 0.5,0.125 0.71875,0.265625 0.203125,0.125 0.390625,0.25 0.546875,0.25 C 4.359375,-6.25 4.5,-6.484375 4.5,-6.65625 4.5,-6.875 4.34375,-6.890625 3.984375,-6.984375 3.46875,-7.09375 3.328125,-7.09375 3.171875,-7.09375 c -0.78125,0 -1.140625,0.4375 -1.140625,1.03125 0,0.546875 0.296875,1.09375 0.59375,1.703125 z m 0.125,0.21875 c 0.25,0.46875 0.546875,1 0.546875,1.71875 0,0.65625 -0.375,2.328125 -1.296875,2.328125 -0.546875,0 -0.96875,-0.421875 -0.96875,-1.1875 0,-0.625 0.375,-2.5 1.71875,-2.859375 z m 0,0"
               id="id-33268fd9-c68d-474a-86a2-cf89edd83a1c" />
          </g>
        </g>
        <g
           style="fill:#000000;fill-opacity:1"
           id="id-66cae36f-396b-4d22-ae47-a5005bf41ea6">
          <g
             transform="translate(153.14,136.259)"
             id="g1802">
            <path
               style="stroke:none"
               d="m 1.9375,1.09375 c -0.453125,0 -0.515625,0 -0.515625,-0.296875 v -1.125 C 1.453125,-0.296875 1.78125,0.0625 2.359375,0.0625 3.28125,0.0625 4.0625,-0.625 4.0625,-1.5 c 0,-0.859375 -0.703125,-1.578125 -1.59375,-1.578125 -0.390625,0 -0.796875,0.15625 -1.078125,0.4375 v -0.4375 L 0.34375,-3 v 0.25 c 0.484375,0 0.515625,0.046875 0.515625,0.328125 v 3.21875 c 0,0.296875 -0.0625,0.296875 -0.515625,0.296875 v 0.265625 c 0.015625,0 0.5,-0.03125 0.796875,-0.03125 0.25,0 0.734375,0.015625 0.796875,0.03125 z M 1.421875,-2.328125 C 1.625,-2.671875 2.03125,-2.84375 2.390625,-2.84375 c 0.59375,0 1.046875,0.609375 1.046875,1.34375 0,0.796875 -0.53125,1.375 -1.109375,1.375 -0.625,0 -0.890625,-0.53125 -0.90625,-0.578125 z m 0,0"
               id="id-99f03a19-2f6e-4c98-b445-d2b44ed3ac6d" />
          </g>
        </g>
        <g
           style="fill:#000000;fill-opacity:1"
           id="id-ad61b524-916b-4922-bdaf-c0de8eadcfd3">
          <g
             transform="translate(157.324,136.259)"
             id="g1806">
            <path
               style="stroke:none"
               d="M 3.296875,-2.328125 C 3.5,-2.75 3.84375,-2.75 3.953125,-2.75 V -3 c -0.171875,0.015625 -0.34375,0.03125 -0.53125,0.03125 -0.1875,0 -0.4375,-0.015625 -0.625,-0.03125 v 0.25 c 0.296875,0.015625 0.296875,0.234375 0.296875,0.265625 0,0.03125 -0.015625,0.09375 -0.0625,0.203125 L 2.25,-0.5625 1.375,-2.453125 C 1.375,-2.46875 1.34375,-2.546875 1.34375,-2.59375 1.34375,-2.75 1.578125,-2.75 1.6875,-2.75 V -3 c -0.015625,0 -0.5,0.03125 -0.78125,0.03125 -0.21875,0 -0.484375,-0.015625 -0.6875,-0.03125 v 0.25 c 0.375,0 0.46875,0.015625 0.5625,0.25 l 1.109375,2.421875 C 1.921875,0 1.96875,0.0625 2.078125,0.0625 2.21875,0.0625 2.25,0 2.28125,-0.0625 Z m 0,0"
               id="id-bc348cc7-32ee-4910-b5e5-577afa04b46a" />
          </g>
        </g>
      </g>
    </g>
  </g>
</svg>
