<?xml version="1.0" encoding="UTF-8" standalone="no"?>
<svg
   xmlns:ns3="http://www.iki.fi/pav/software/textext/"
   xmlns:dc="http://purl.org/dc/elements/1.1/"
   xmlns:cc="http://creativecommons.org/ns#"
   xmlns:rdf="http://www.w3.org/1999/02/22-rdf-syntax-ns#"
   xmlns:svg="http://www.w3.org/2000/svg"
   xmlns="http://www.w3.org/2000/svg"
   xmlns:sodipodi="http://sodipodi.sourceforge.net/DTD/sodipodi-0.dtd"
   xmlns:inkscape="http://www.inkscape.org/namespaces/inkscape"
   width="600"
   height="600"
   viewBox="0 0 158.75088 158.75036"
   version="1.1"
   id="svg8"
   inkscape:version="1.0.2 (1.0.2+r75+1)"
   sodipodi:docname="roundness_short_error.svg"
   inkscape:export-filename="/home/dieu/mimuralab/bthesis/paper/thesis/chap2/figure/error_types/roundness_short_error_schematic.png"
   inkscape:export-xdpi="96"
   inkscape:export-ydpi="96">
  <defs
     id="defs2">
    <marker
       style="overflow:visible"
       id="Arrow2Mend"
       refX="0"
       refY="0"
       orient="auto"
       inkscape:stockid="Arrow2Mend"
       inkscape:isstock="true">
      <path
         transform="scale(-0.6)"
         d="M 8.7185878,4.0337352 -2.2072895,0.01601326 8.7185884,-4.0017078 c -1.7454984,2.3720609 -1.7354408,5.6174519 -6e-7,8.035443 z"
         style="fill:#000000;fill-opacity:1;fill-rule:evenodd;stroke:#000000;stroke-width:0.625;stroke-linejoin:round;stroke-opacity:1"
         id="path861" />
    </marker>
    <marker
       style="overflow:visible"
       id="Arrow2Send"
       refX="0"
       refY="0"
       orient="auto"
       inkscape:stockid="Arrow2Send"
       inkscape:isstock="true">
      <path
         transform="matrix(-0.3,0,0,-0.3,0.69,0)"
         d="M 8.7185878,4.0337352 -2.2072895,0.01601326 8.7185884,-4.0017078 c -1.7454984,2.3720609 -1.7354408,5.6174519 -6e-7,8.035443 z"
         style="fill:#000000;fill-opacity:1;fill-rule:evenodd;stroke:#000000;stroke-width:0.625;stroke-linejoin:round;stroke-opacity:1"
         id="path867" />
    </marker>
    <marker
       style="overflow:visible"
       id="Arrow2Lend"
       refX="0"
       refY="0"
       orient="auto"
       inkscape:stockid="Arrow2Lend"
       inkscape:isstock="true">
      <path
         transform="matrix(-1.1,0,0,-1.1,-1.1,0)"
         d="M 8.7185878,4.0337352 -2.2072895,0.01601326 8.7185884,-4.0017078 c -1.7454984,2.3720609 -1.7354408,5.6174519 -6e-7,8.035443 z"
         style="fill:#000000;fill-opacity:1;fill-rule:evenodd;stroke:#000000;stroke-width:0.625;stroke-linejoin:round;stroke-opacity:1"
         id="path855" />
    </marker>
    <marker
       style="overflow:visible"
       id="Arrow2Mend-8"
       refX="0"
       refY="0"
       orient="auto"
       inkscape:stockid="Arrow2Mend"
       inkscape:isstock="true">
      <path
         transform="scale(-0.6)"
         d="M 8.7185878,4.0337352 -2.2072895,0.01601326 8.7185884,-4.0017078 c -1.7454984,2.3720609 -1.7354408,5.6174519 -6e-7,8.035443 z"
         style="fill:#000000;fill-opacity:1;fill-rule:evenodd;stroke:#000000;stroke-width:0.625;stroke-linejoin:round;stroke-opacity:1"
         id="path861-0" />
    </marker>
  </defs>
  <sodipodi:namedview
     id="base"
     pagecolor="#ffffff"
     bordercolor="#666666"
     borderopacity="1.0"
     inkscape:pageopacity="0.0"
     inkscape:pageshadow="2"
     inkscape:zoom="0.7"
     inkscape:cx="500.84943"
     inkscape:cy="526.00257"
     inkscape:document-units="mm"
     inkscape:current-layer="layer1"
     showgrid="false"
     inkscape:window-width="1848"
     inkscape:window-height="1136"
     inkscape:window-x="72"
     inkscape:window-y="27"
     inkscape:window-maximized="1"
     units="px"
     inkscape:document-rotation="0" />
  <metadata
     id="metadata5">
    <rdf:RDF>
      <cc:Work
         rdf:about="">
        <dc:format>image/svg+xml</dc:format>
        <dc:type
           rdf:resource="http://purl.org/dc/dcmitype/StillImage" />
        <dc:title />
      </cc:Work>
    </rdf:RDF>
  </metadata>
  <g
     inkscape:label="Layer 1"
     inkscape:groupmode="layer"
     id="layer1"
     transform="translate(0,-177.93518)">
    <ellipse
       style="opacity:1;fill:none;fill-opacity:0.214286;fill-rule:nonzero;stroke:#000000;stroke-width:1.17794;stroke-linecap:square;stroke-linejoin:miter;stroke-miterlimit:4;stroke-dasharray:4.71178, 4.71178;stroke-dashoffset:5.00592;stroke-opacity:1;paint-order:normal"
       id="path815"
       cx="81.349655"
       cy="258.76071"
       rx="49.411198"
       ry="49.421963" />
    <path
       id="path815-3"
       style="opacity:1;fill:none;fill-opacity:0.214286;fill-rule:nonzero;stroke:#000000;stroke-width:2.32285;stroke-linecap:square;stroke-linejoin:miter;stroke-miterlimit:4;stroke-dasharray:none;stroke-dashoffset:0;stroke-opacity:1;paint-order:normal"
       d="m 132.22903,254.67678 c 1.51896,1.54214 -0.84323,2.7347 -1.32613,4.81308 -0.48295,2.07838 1.82017,3.54075 0.90521,5.57546 -0.91496,2.03471 -3.48276,3.49368 -4.49642,5.50878 -1.01366,2.0151 -1.27829,4.9117 -2.05734,6.93124 -0.83135,2.15512 -3.20931,2.85095 -3.8039,5.23412 -0.59459,2.38317 1.04936,7.77752 0.35307,10.09278 -0.6963,2.31526 -3.49772,1.51402 -4.63419,3.4654 -1.13647,1.95138 -0.38688,3.75593 -2.30198,5.04746 -0.98655,0.66532 -3.46873,-0.86607 -4.6237,-0.75793 -1.15498,0.10813 -2.37409,2.54612 -3.61716,2.38537 -1.24307,-0.16076 -3.97558,-4.39511 -5.22641,-4.53646 -1.25082,-0.14135 -2.898471,3.67666 -4.076715,3.84299 -2.278584,0.32168 -2.91484,4.08248 -5.150124,4.96782 -2.235284,0.88533 -4.157802,-3.08416 -6.370978,-2.15753 -2.213176,0.92663 -4.453882,3.8563 -6.666142,4.30187 -2.212261,0.44557 -3.434656,-1.06849 -5.667192,-1.62634 -1.054669,-0.26354 -3.430601,2.66175 -4.206831,1.89397 -0.776231,-0.76779 -0.947465,-3.64014 -1.626584,-4.59059 -0.679118,-0.95045 -1.355012,-1.91182 -2.118344,-2.72334 -0.763332,-0.81152 0.296133,-3.25923 -0.732739,-3.61022 -1.425315,-0.48625 -4.883264,1.39381 -6.475649,1.74837 -1.592386,0.35456 -3.229444,0.96968 -4.833452,1.52567 -1.604007,0.55599 -2.314872,-2.39644 -3.775052,-2.2784 -1.46018,0.11803 -2.811436,2.28845 -3.972341,1.32915 -1.651325,-1.36455 -0.551408,-3.88655 -0.886541,-5.90833 -0.335134,-2.02178 -2.963557,-2.52528 -2.703735,-4.87532 0.259823,-2.35005 -1.432836,-6.90958 -1.299293,-9.25893 0.133543,-2.34935 -4.562832,-2.75578 -5.276805,-4.77546 -0.619093,-1.75129 -2.902975,-2.28285 -4.130105,-3.78363 -1.22713,-1.50079 4.789365,-6.4798 3.448035,-7.91444 -1.34133,-1.43464 -3.789741,-2.40472 -4.751432,-3.95756 -0.96169,-1.55284 4.510953,-2.74011 4.422741,-4.59551 -0.09122,-1.91861 -2.821751,-5.27537 -2.083156,-7.00238 0.738595,-1.72701 -0.696553,-5.67491 0.464247,-7.31065 1.160799,-1.63575 3.219264,-0.9051 4.39466,-2.54991 1.175395,-1.64481 4.221242,-1.49539 5.003626,-3.2496 0.820892,-1.84056 -1.379877,-4.35132 -0.98171,-6.51292 0.398168,-2.1616 2.961761,-3.01951 3.375442,-5.14517 0.413682,-2.12566 -0.210826,-3.58977 0.656608,-5.3225 0.867434,-1.73273 3.77052,-0.37768 5.529946,-1.3605 1.193791,-0.66685 -0.256303,-4.5215 0.960221,-4.21784 1.216524,0.30367 3.400451,1.96357 4.701194,2.63152 1.300742,0.66794 1.193098,-3.54123 2.639544,-3.11524 1.446447,0.42599 4.446984,5.48714 6.100619,5.06494 1.507205,-0.38482 2.827922,-2.33149 4.171837,-3.32991 1.343915,-0.99842 3.230749,0.67296 4.540862,-0.47999 1.310114,-1.15295 1.988655,-5.52637 3.394457,-6.37477 1.405802,-0.84839 3.019143,0.10667 4.650122,0.0219 1.613207,-0.0838 2.535701,3.06735 4.018302,3.62686 1.482602,0.55951 3.870101,-0.41621 5.28727,0.47891 1.417168,0.89513 4.267065,-0.79063 5.683974,0.13239 1.416908,0.92301 1.59058,2.68765 3.072403,3.33082 1.83624,0.79701 6.47023,-2.7879 8.50485,-2.28648 2.03462,0.50142 1.73547,4.57567 3.74507,5.10093 2.0096,0.52526 2.88343,4.84053 4.6446,5.70905 1.76118,0.86853 7.14267,0.0974 8.43201,1.6286 0.85828,1.01928 -2.16948,1.61695 -1.86204,2.89122 0.30745,1.27428 -1.76567,2.0634 -1.699,3.45761 0.0667,1.39421 4.46887,2.33781 4.60484,3.71688 0.13593,1.37907 -4.97325,4.01343 -4.45801,5.24229 0.44462,1.06044 4.26882,1.78257 5.02225,2.70192 0.75342,0.91934 -0.006,3.29872 0.80143,4.18429 0.80725,0.88558 3.69062,0.81441 4.29674,1.77356 0.60612,0.95915 -2.48137,2.66539 -1.67447,3.48461 z"
       sodipodi:nodetypes="ssssssssssssssssssssssssssssssssssssssssssssssssssssssssssssssssss" />
    <path
       style="fill:none;stroke:#000000;stroke-width:1.8521;stroke-linecap:butt;stroke-linejoin:miter;stroke-miterlimit:4;stroke-dasharray:none;stroke-opacity:1;marker-end:url(#Arrow2Mend)"
       d="M 82.108851,238.47083 V 220.75398"
       id="path832"
       sodipodi:nodetypes="cc" />
    <path
       style="fill:none;stroke:#000000;stroke-width:1.8521;stroke-linecap:butt;stroke-linejoin:miter;stroke-miterlimit:4;stroke-dasharray:none;stroke-opacity:1;marker-end:url(#Arrow2Mend-8)"
       d="M 82.108851,185.04535 V 202.7622"
       id="path832-4"
       sodipodi:nodetypes="cc" />
    <g
       transform="matrix(2.11667,0,0,2.11667,92.353752,189.45067)"
       ns3:version="1.3.0"
       ns3:texconverter="pdflatex"
       ns3:pdfconverter="inkscape"
       ns3:text="$\\delta_{\\mathrm{pv}}$"
       ns3:preamble="/home/dieu/.config/inkscape/extensions/textext/default_packages.tex"
       ns3:scale="6.0"
       ns3:alignment="middle center"
       ns3:inkscapeversion="0.92.5"
       ns3:jacobian_sqrt="2.11667"
       id="g1320">
      <defs
         id="id-399bf14b-208e-48be-80e7-21991994c61c">
        <g
           id="id-c969fce0-a7dc-48a5-8a81-3546904ac219">
          <symbol
             overflow="visible"
             id="id-d9a048b2-0c8f-4612-ae3d-420207beb2d7">
            <path
               style="stroke:none;stroke-width:0"
               d=""
               id="id-6e45d64e-7b9b-4244-815a-96712afce511" />
          </symbol>
          <symbol
             overflow="visible"
             id="id-f5cbc00a-e3f5-4664-953d-cf8ae68ebfde">
            <path
               style="stroke:none;stroke-width:0"
               d="M 2.625,-4.359375 C 1.390625,-4.0625 0.421875,-2.765625 0.421875,-1.5625 0.421875,-0.59375 1.0625,0.125 2,0.125 c 1.15625,0 1.984375,-1.578125 1.984375,-2.953125 0,-0.90625 -0.390625,-1.40625 -0.734375,-1.84375 C 2.890625,-5.125 2.296875,-5.875 2.296875,-6.3125 c 0,-0.21875 0.203125,-0.453125 0.546875,-0.453125 0.3125,0 0.5,0.125 0.71875,0.265625 0.203125,0.125 0.390625,0.25 0.546875,0.25 C 4.359375,-6.25 4.5,-6.484375 4.5,-6.65625 4.5,-6.875 4.34375,-6.890625 3.984375,-6.984375 3.46875,-7.09375 3.328125,-7.09375 3.171875,-7.09375 c -0.78125,0 -1.140625,0.4375 -1.140625,1.03125 0,0.546875 0.296875,1.09375 0.59375,1.703125 z m 0.125,0.21875 c 0.25,0.46875 0.546875,1 0.546875,1.71875 0,0.65625 -0.375,2.328125 -1.296875,2.328125 -0.546875,0 -0.96875,-0.421875 -0.96875,-1.1875 0,-0.625 0.375,-2.5 1.71875,-2.859375 z m 0,0"
               id="id-7f3832e1-802d-4d78-95af-b97e5dd24b61" />
          </symbol>
          <symbol
             overflow="visible"
             id="id-bf34ca3a-0c6b-45e1-b887-7e4aaffeeb0d">
            <path
               style="stroke:none;stroke-width:0"
               d=""
               id="id-61c26b94-1056-4e2e-8358-f5a0ce4cc99a" />
          </symbol>
          <symbol
             overflow="visible"
             id="id-459ba3e1-2655-44b1-afd0-a21162b03848">
            <path
               style="stroke:none;stroke-width:0"
               d="m 1.9375,1.09375 c -0.453125,0 -0.515625,0 -0.515625,-0.296875 v -1.125 C 1.453125,-0.296875 1.78125,0.0625 2.359375,0.0625 3.28125,0.0625 4.0625,-0.625 4.0625,-1.5 c 0,-0.859375 -0.703125,-1.578125 -1.59375,-1.578125 -0.390625,0 -0.796875,0.15625 -1.078125,0.4375 v -0.4375 L 0.34375,-3 v 0.25 c 0.484375,0 0.515625,0.046875 0.515625,0.328125 v 3.21875 c 0,0.296875 -0.0625,0.296875 -0.515625,0.296875 v 0.265625 c 0.015625,0 0.5,-0.03125 0.796875,-0.03125 0.25,0 0.734375,0.015625 0.796875,0.03125 z M 1.421875,-2.328125 C 1.625,-2.671875 2.03125,-2.84375 2.390625,-2.84375 c 0.59375,0 1.046875,0.609375 1.046875,1.34375 0,0.796875 -0.53125,1.375 -1.109375,1.375 -0.625,0 -0.890625,-0.53125 -0.90625,-0.578125 z m 0,0"
               id="id-aed1bd75-934b-4414-9f8b-d8be7aaafb3d" />
          </symbol>
          <symbol
             overflow="visible"
             id="id-3ef0d47c-f200-42cd-ad09-54a7c349a263">
            <path
               style="stroke:none;stroke-width:0"
               d="M 3.296875,-2.328125 C 3.5,-2.75 3.84375,-2.75 3.953125,-2.75 V -3 c -0.171875,0.015625 -0.34375,0.03125 -0.53125,0.03125 -0.1875,0 -0.4375,-0.015625 -0.625,-0.03125 v 0.25 c 0.296875,0.015625 0.296875,0.234375 0.296875,0.265625 0,0.03125 -0.015625,0.09375 -0.0625,0.203125 L 2.25,-0.5625 1.375,-2.453125 C 1.375,-2.46875 1.34375,-2.546875 1.34375,-2.59375 1.34375,-2.75 1.578125,-2.75 1.6875,-2.75 V -3 c -0.015625,0 -0.5,0.03125 -0.78125,0.03125 -0.21875,0 -0.484375,-0.015625 -0.6875,-0.03125 v 0.25 c 0.375,0 0.46875,0.015625 0.5625,0.25 l 1.109375,2.421875 C 1.921875,0 1.96875,0.0625 2.078125,0.0625 2.21875,0.0625 2.25,0 2.28125,-0.0625 Z m 0,0"
               id="id-3d0d30a8-0484-45f3-8998-4825b6fa76ce" />
          </symbol>
        </g>
      </defs>
      <g
         id="id-ce8b305c-4f9c-46a1-921c-c4b45582e80b"
         transform="translate(-149.134,-127.671)">
        <g
           style="fill:#000000;fill-opacity:1"
           id="id-e37ac042-c8bc-4af1-88eb-7970dd0c5775">
          <g
             transform="translate(148.712,134.765)"
             id="g1308">
            <path
               style="stroke:none;stroke-width:0"
               d="M 2.625,-4.359375 C 1.390625,-4.0625 0.421875,-2.765625 0.421875,-1.5625 0.421875,-0.59375 1.0625,0.125 2,0.125 c 1.15625,0 1.984375,-1.578125 1.984375,-2.953125 0,-0.90625 -0.390625,-1.40625 -0.734375,-1.84375 C 2.890625,-5.125 2.296875,-5.875 2.296875,-6.3125 c 0,-0.21875 0.203125,-0.453125 0.546875,-0.453125 0.3125,0 0.5,0.125 0.71875,0.265625 0.203125,0.125 0.390625,0.25 0.546875,0.25 C 4.359375,-6.25 4.5,-6.484375 4.5,-6.65625 4.5,-6.875 4.34375,-6.890625 3.984375,-6.984375 3.46875,-7.09375 3.328125,-7.09375 3.171875,-7.09375 c -0.78125,0 -1.140625,0.4375 -1.140625,1.03125 0,0.546875 0.296875,1.09375 0.59375,1.703125 z m 0.125,0.21875 c 0.25,0.46875 0.546875,1 0.546875,1.71875 0,0.65625 -0.375,2.328125 -1.296875,2.328125 -0.546875,0 -0.96875,-0.421875 -0.96875,-1.1875 0,-0.625 0.375,-2.5 1.71875,-2.859375 z m 0,0"
               id="id-d4d68ad2-028e-4828-8176-182a3ccb09bf" />
          </g>
        </g>
        <g
           style="fill:#000000;fill-opacity:1"
           id="id-4d1aa4cf-7247-4142-9060-cb8412496c41">
          <g
             transform="translate(153.14,136.259)"
             id="g1312">
            <path
               style="stroke:none;stroke-width:0"
               d="m 1.9375,1.09375 c -0.453125,0 -0.515625,0 -0.515625,-0.296875 v -1.125 C 1.453125,-0.296875 1.78125,0.0625 2.359375,0.0625 3.28125,0.0625 4.0625,-0.625 4.0625,-1.5 c 0,-0.859375 -0.703125,-1.578125 -1.59375,-1.578125 -0.390625,0 -0.796875,0.15625 -1.078125,0.4375 v -0.4375 L 0.34375,-3 v 0.25 c 0.484375,0 0.515625,0.046875 0.515625,0.328125 v 3.21875 c 0,0.296875 -0.0625,0.296875 -0.515625,0.296875 v 0.265625 c 0.015625,0 0.5,-0.03125 0.796875,-0.03125 0.25,0 0.734375,0.015625 0.796875,0.03125 z M 1.421875,-2.328125 C 1.625,-2.671875 2.03125,-2.84375 2.390625,-2.84375 c 0.59375,0 1.046875,0.609375 1.046875,1.34375 0,0.796875 -0.53125,1.375 -1.109375,1.375 -0.625,0 -0.890625,-0.53125 -0.90625,-0.578125 z m 0,0"
               id="id-10228ed9-112d-4d46-b09a-4b0ede9e7b8e" />
          </g>
        </g>
        <g
           style="fill:#000000;fill-opacity:1"
           id="id-24ccf61b-bfb1-4854-bb02-b9ede744a28c">
          <g
             transform="translate(157.324,136.259)"
             id="g1316">
            <path
               style="stroke:none;stroke-width:0"
               d="M 3.296875,-2.328125 C 3.5,-2.75 3.84375,-2.75 3.953125,-2.75 V -3 c -0.171875,0.015625 -0.34375,0.03125 -0.53125,0.03125 -0.1875,0 -0.4375,-0.015625 -0.625,-0.03125 v 0.25 c 0.296875,0.015625 0.296875,0.234375 0.296875,0.265625 0,0.03125 -0.015625,0.09375 -0.0625,0.203125 L 2.25,-0.5625 1.375,-2.453125 C 1.375,-2.46875 1.34375,-2.546875 1.34375,-2.59375 1.34375,-2.75 1.578125,-2.75 1.6875,-2.75 V -3 c -0.015625,0 -0.5,0.03125 -0.78125,0.03125 -0.21875,0 -0.484375,-0.015625 -0.6875,-0.03125 v 0.25 c 0.375,0 0.46875,0.015625 0.5625,0.25 l 1.109375,2.421875 C 1.921875,0 1.96875,0.0625 2.078125,0.0625 2.21875,0.0625 2.25,0 2.28125,-0.0625 Z m 0,0"
               id="id-c5006ccd-451d-48a4-a4af-0e97471ebfab" />
          </g>
        </g>
      </g>
    </g>
  </g>
</svg>
