<?xml version="1.0" encoding="UTF-8" standalone="no"?>
<!-- Created with Inkscape (http://www.inkscape.org/) -->

<svg
   xmlns:dc="http://purl.org/dc/elements/1.1/"
   xmlns:cc="http://creativecommons.org/ns#"
   xmlns:rdf="http://www.w3.org/1999/02/22-rdf-syntax-ns#"
   xmlns:svg="http://www.w3.org/2000/svg"
   xmlns="http://www.w3.org/2000/svg"
   xmlns:sodipodi="http://sodipodi.sourceforge.net/DTD/sodipodi-0.dtd"
   xmlns:inkscape="http://www.inkscape.org/namespaces/inkscape"
   width="1200"
   height="600"
   viewBox="0 0 317.5 158.75"
   version="1.1"
   id="svg8"
   inkscape:version="0.92.5 (2060ec1f9f, 2020-04-08)"
   sodipodi:docname="waveerror_schematic.svg"
   inkscape:export-filename="/home/dieu/mimuralab/bthesis/paper/thesis/chap1/figure/wave_error_schematic.png"
   inkscape:export-xdpi="96"
   inkscape:export-ydpi="96">
  <defs
     id="defs2" />
  <sodipodi:namedview
     id="base"
     pagecolor="#ffffff"
     bordercolor="#666666"
     borderopacity="1.0"
     inkscape:pageopacity="0.0"
     inkscape:pageshadow="2"
     inkscape:zoom="0.98994949"
     inkscape:cx="561.70681"
     inkscape:cy="164.28882"
     inkscape:document-units="mm"
     inkscape:current-layer="layer1"
     showgrid="false"
     units="px"
     inkscape:window-width="1848"
     inkscape:window-height="1136"
     inkscape:window-x="72"
     inkscape:window-y="27"
     inkscape:window-maximized="1" />
  <metadata
     id="metadata5">
    <rdf:RDF>
      <cc:Work
         rdf:about="">
        <dc:format>image/svg+xml</dc:format>
        <dc:type
           rdf:resource="http://purl.org/dc/dcmitype/StillImage" />
        <dc:title></dc:title>
      </cc:Work>
    </rdf:RDF>
  </metadata>
  <g
     inkscape:label="Layer 1"
     inkscape:groupmode="layer"
     id="layer1"
     transform="translate(0,-138.24998)">
    <path
       style="opacity:1;fill:#ff0000;fill-opacity:0.31372549;stroke:none;stroke-width:0.13229166;stroke-linecap:square;stroke-linejoin:miter;stroke-miterlimit:4;stroke-dasharray:none;stroke-dashoffset:0;stroke-opacity:1;paint-order:normal"
       d="m 34.07945,163.35298 82.92286,5.83667 v 3.17499 l -82.92286,-1.2e-4 z"
       id="rect880"
       inkscape:connector-curvature="0"
       sodipodi:nodetypes="ccccc" />
    <path
       style="opacity:1;fill:#ff0000;fill-opacity:0.31372549;stroke:none;stroke-width:0.13229166;stroke-linecap:square;stroke-linejoin:miter;stroke-miterlimit:4;stroke-dasharray:none;stroke-dashoffset:0;stroke-opacity:1;paint-order:normal"
       d="m 117.00231,169.18965 84.81276,19.82181 -7e-5,7.45743 -167.735631,-29.9409 z"
       id="rect880-0"
       inkscape:connector-curvature="0"
       sodipodi:nodetypes="ccccc" />
    <path
       style="fill:#000000;fill-opacity:1;stroke:none;stroke-width:0.132;stroke-linecap:butt;stroke-linejoin:miter;stroke-miterlimit:4;stroke-dasharray:none;stroke-opacity:1"
       d="m 201.81507,192.18648 v -3.17502 l -84.81276,-19.82181 -82.922861,-5.83668 v 3.17502 l 5.182679,0.36479 c 0,0 3.435693,0.73903 5.182679,0.86089 1.723925,0.12024 3.473509,-0.43428 5.206303,-0.29667 1.521819,0.12086 2.746413,0.85741 4.473973,0.97901 1.72756,0.12159 4.140201,-0.46551 5.867761,-0.34392 1.72756,0.1216 3.006273,1.02277 4.733832,1.14437 1.72756,0.1216 3.903966,-0.27652 5.631526,-0.15492 1.72756,0.12159 3.171637,1.11726 4.899197,1.23886 1.72756,0.1216 5.085142,-1.00885 6.812701,-0.88725 1.72756,0.12159 1.858014,0.48753 3.585574,0.60913 1.727559,0.1216 2.736832,-0.0241 4.464392,0.0975 1.72756,0.1216 4.423971,0.6441 6.151531,0.7657 1.72756,0.1216 2.887172,1.31227 4.614733,1.43387 1.72756,0.1216 4.72465,-0.62543 6.45221,-0.50383 1.72756,0.12159 2.95398,0.34342 4.68154,0.46502 1.72756,0.12159 4.98223,0.0641 4.98223,0.0641 0,0 3.11045,0.52879 4.88319,1.005 1.77274,0.47621 3.90556,1.98556 5.7184,1.90704 1.65001,-0.0715 3.6675,1.66113 5.43444,2.07408 1.76693,0.41295 3.46704,-0.77771 5.23398,-0.36475 1.76693,0.41295 3.46704,1.82817 5.23398,2.24112 1.76693,0.41295 2.5316,1.02636 4.29853,1.43931 1.76694,0.41296 3.53387,0.82591 5.3008,1.23887 1.76693,0.41295 4.53613,-0.0427 6.30306,0.37023 1.76693,0.41296 3.53386,0.82591 5.3008,1.23887 1.76693,0.41295 3.16637,1.99521 4.9333,2.40817 1.76693,0.41295 3.90136,-0.3434 5.66829,0.0695 1.76694,0.41296 3.06615,2.09544 4.83308,2.5084 1.76693,0.41295 4.00159,-0.44362 5.76852,-0.0307 1.76693,0.41295 3.26659,2.09544 5.03353,2.50839 1.76693,0.41296 3.80113,-0.44362 5.56806,-0.0307 1.76693,0.41295 5.3008,1.23886 5.3008,1.23886 z"
       id="path815-5-96"
       inkscape:connector-curvature="0"
       sodipodi:nodetypes="ccccccsassssssssssssczszzzzzzzzzzzzzc" />
    <path
       style="fill:none;stroke:#ff0000;stroke-width:0.88132709;stroke-linecap:butt;stroke-linejoin:miter;stroke-miterlimit:4;stroke-dasharray:none;stroke-opacity:1"
       d="m 30.594423,166.54698 v 5.85537"
       id="path4602"
       inkscape:connector-curvature="0"
       sodipodi:nodetypes="cc" />
    <path
       style="fill:none;stroke:#ff0000;stroke-width:0.88132709;stroke-linecap:butt;stroke-linejoin:miter;stroke-miterlimit:4;stroke-dasharray:none;stroke-opacity:1"
       d="m 27.959508,166.54698 v 5.85537"
       id="path4602-2"
       inkscape:connector-curvature="0"
       sodipodi:nodetypes="cc" />
    <path
       style="fill:none;stroke:#ff0000;stroke-width:0.88132709;stroke-linecap:butt;stroke-linejoin:miter;stroke-miterlimit:4;stroke-dasharray:none;stroke-opacity:1"
       d="m 25.324594,166.54698 v 5.85537"
       id="path4602-7"
       inkscape:connector-curvature="0"
       sodipodi:nodetypes="cc" />
    <path
       style="fill:none;stroke:#ff0000;stroke-width:0.88132709;stroke-linecap:butt;stroke-linejoin:miter;stroke-miterlimit:4;stroke-dasharray:none;stroke-opacity:1"
       d="m 22.689679,166.54698 v 5.85537"
       id="path4602-7-6"
       inkscape:connector-curvature="0"
       sodipodi:nodetypes="cc" />
    <path
       style="fill:none;stroke:#ff0000;stroke-width:0.88132709;stroke-linecap:butt;stroke-linejoin:miter;stroke-miterlimit:4;stroke-dasharray:none;stroke-opacity:1"
       d="m 20.054764,166.54698 v 5.85537"
       id="path4602-7-1"
       inkscape:connector-curvature="0"
       sodipodi:nodetypes="cc" />
    <path
       style="fill:none;stroke:#ff0000;stroke-width:0.88132709;stroke-linecap:butt;stroke-linejoin:miter;stroke-miterlimit:4;stroke-dasharray:none;stroke-opacity:1"
       d="m 17.41985,166.54698 v 5.85537"
       id="path4602-7-3"
       inkscape:connector-curvature="0"
       sodipodi:nodetypes="cc" />
    <path
       style="fill:none;stroke:#ff0000;stroke-width:0.88132709;stroke-linecap:butt;stroke-linejoin:miter;stroke-miterlimit:4;stroke-dasharray:none;stroke-opacity:1"
       d="m 14.784934,166.54698 v 5.85537"
       id="path4602-7-2"
       inkscape:connector-curvature="0"
       sodipodi:nodetypes="cc" />
    <path
       style="fill:none;stroke:#ff0000;stroke-width:0.88132709;stroke-linecap:butt;stroke-linejoin:miter;stroke-miterlimit:4;stroke-dasharray:none;stroke-opacity:1"
       d="m 12.150019,166.54698 v 5.85537"
       id="path4602-7-15"
       inkscape:connector-curvature="0"
       sodipodi:nodetypes="cc" />
    <path
       style="opacity:1;fill:#ff0000;fill-opacity:0.31372549;stroke:none;stroke-width:0.13229166;stroke-linecap:square;stroke-linejoin:miter;stroke-miterlimit:4;stroke-dasharray:none;stroke-dashoffset:0;stroke-opacity:1;paint-order:normal"
       d="M 34.783649,278.84567 117.70661,273.009 v -3.17499 l -82.922961,1.2e-4 z"
       id="rect880-9"
       inkscape:connector-curvature="0"
       sodipodi:nodetypes="ccccc" />
    <path
       style="opacity:1;fill:#ff0000;fill-opacity:0.31372549;stroke:none;stroke-width:0.13229166;stroke-linecap:square;stroke-linejoin:miter;stroke-miterlimit:4;stroke-dasharray:none;stroke-dashoffset:0;stroke-opacity:1;paint-order:normal"
       d="m 117.70661,273.009 84.81279,-19.82181 0.008,-7.45743 -167.743832,29.9409 z"
       id="rect880-0-9"
       inkscape:connector-curvature="0"
       sodipodi:nodetypes="ccccc" />
    <path
       style="fill:#000000;fill-opacity:1;stroke:none;stroke-width:0.132;stroke-linecap:butt;stroke-linejoin:miter;stroke-miterlimit:4;stroke-dasharray:none;stroke-opacity:1"
       d="m 202.5194,250.01217 v 3.17502 l -84.81279,19.82181 -82.922962,5.83668 v -3.17502 l 5.182678,-0.36479 c 0,0 3.435694,-0.73903 5.182679,-0.86089 1.723925,-0.12024 3.473511,0.43428 5.206304,0.29667 1.52182,-0.12086 2.746412,-0.85741 4.473972,-0.97901 1.72756,-0.12159 4.140203,0.46551 5.867763,0.34392 1.72756,-0.1216 3.006272,-1.02277 4.733832,-1.14437 1.72756,-0.1216 3.903964,0.27652 5.631524,0.15492 1.72756,-0.12159 3.171637,-1.11726 4.899197,-1.23886 1.727563,-0.1216 5.085144,1.00885 6.812703,0.88725 1.72756,-0.12159 1.858013,-0.48753 3.585573,-0.60913 1.72756,-0.1216 2.736831,0.0241 4.464391,-0.0975 1.727563,-0.1216 4.423974,-0.6441 6.151534,-0.7657 1.727559,-0.1216 2.88717,-1.31227 4.614742,-1.43387 1.72757,-0.1216 4.72467,0.62543 6.45224,0.50383 1.72757,-0.12159 2.954,-0.34342 4.68158,-0.46502 1.72755,-0.12159 4.98225,-0.0641 4.98225,-0.0641 0,0 3.11047,-0.52879 4.88322,-1.005 1.77274,-0.47621 3.90556,-1.98556 5.7184,-1.90704 1.65001,0.0715 3.6675,-1.66113 5.43444,-2.07408 1.76693,-0.41295 3.46704,0.77771 5.23398,0.36475 1.76693,-0.41295 3.46704,-1.82817 5.23398,-2.24112 1.76693,-0.41295 2.5316,-1.02636 4.29853,-1.43931 1.76694,-0.41296 3.53387,-0.82591 5.3008,-1.23887 1.76693,-0.41295 4.53613,0.0427 6.30306,-0.37023 1.76693,-0.41296 3.53386,-0.82591 5.3008,-1.23887 1.76693,-0.41295 3.16637,-1.99521 4.93329,-2.40817 1.76694,-0.41295 3.90137,0.3434 5.6683,-0.0695 1.76694,-0.41296 3.06615,-2.09544 4.83308,-2.5084 1.76693,-0.41295 4.00159,0.44362 5.76852,0.0307 1.76693,-0.41295 3.26659,-2.09544 5.03353,-2.50839 1.76693,-0.41295 3.80113,0.44362 5.56806,0.0307 1.76693,-0.41295 5.3008,-1.23886 5.3008,-1.23886 z"
       id="path815-5-96-1"
       inkscape:connector-curvature="0"
       sodipodi:nodetypes="ccccccsassssssssssssczszzzzzzzzzzzzzc" />
    <path
       style="fill:none;stroke:#ff0000;stroke-width:0.88132709;stroke-linecap:butt;stroke-linejoin:miter;stroke-miterlimit:4;stroke-dasharray:none;stroke-opacity:1"
       d="M 31.298621,275.65167 V 269.7963"
       id="path4602-4"
       inkscape:connector-curvature="0"
       sodipodi:nodetypes="cc" />
    <path
       style="fill:none;stroke:#ff0000;stroke-width:0.88132709;stroke-linecap:butt;stroke-linejoin:miter;stroke-miterlimit:4;stroke-dasharray:none;stroke-opacity:1"
       d="M 28.663705,275.65167 V 269.7963"
       id="path4602-2-9"
       inkscape:connector-curvature="0"
       sodipodi:nodetypes="cc" />
    <path
       style="fill:none;stroke:#ff0000;stroke-width:0.88132709;stroke-linecap:butt;stroke-linejoin:miter;stroke-miterlimit:4;stroke-dasharray:none;stroke-opacity:1"
       d="M 26.028789,275.65167 V 269.7963"
       id="path4602-7-10"
       inkscape:connector-curvature="0"
       sodipodi:nodetypes="cc" />
    <path
       style="fill:none;stroke:#ff0000;stroke-width:0.88132709;stroke-linecap:butt;stroke-linejoin:miter;stroke-miterlimit:4;stroke-dasharray:none;stroke-opacity:1"
       d="M 23.393873,275.65167 V 269.7963"
       id="path4602-7-6-7"
       inkscape:connector-curvature="0"
       sodipodi:nodetypes="cc" />
    <path
       style="fill:none;stroke:#ff0000;stroke-width:0.88132709;stroke-linecap:butt;stroke-linejoin:miter;stroke-miterlimit:4;stroke-dasharray:none;stroke-opacity:1"
       d="M 20.758956,275.65167 V 269.7963"
       id="path4602-7-1-5"
       inkscape:connector-curvature="0"
       sodipodi:nodetypes="cc" />
    <path
       style="fill:none;stroke:#ff0000;stroke-width:0.88132709;stroke-linecap:butt;stroke-linejoin:miter;stroke-miterlimit:4;stroke-dasharray:none;stroke-opacity:1"
       d="M 18.12404,275.65167 V 269.7963"
       id="path4602-7-3-8"
       inkscape:connector-curvature="0"
       sodipodi:nodetypes="cc" />
    <path
       style="fill:none;stroke:#ff0000;stroke-width:0.88132709;stroke-linecap:butt;stroke-linejoin:miter;stroke-miterlimit:4;stroke-dasharray:none;stroke-opacity:1"
       d="M 15.489123,275.65167 V 269.7963"
       id="path4602-7-2-7"
       inkscape:connector-curvature="0"
       sodipodi:nodetypes="cc" />
    <path
       style="fill:none;stroke:#ff0000;stroke-width:0.88132709;stroke-linecap:butt;stroke-linejoin:miter;stroke-miterlimit:4;stroke-dasharray:none;stroke-opacity:1"
       d="M 12.854206,275.65167 V 269.7963"
       id="path4602-7-15-0"
       inkscape:connector-curvature="0"
       sodipodi:nodetypes="cc" />
    <path
       style="opacity:1;fill:none;fill-opacity:0.31372549;stroke:#000000;stroke-width:0.66833574;stroke-linecap:square;stroke-linejoin:miter;stroke-miterlimit:4;stroke-dasharray:0.66833558, 2.00500673999999979;stroke-dashoffset:0;stroke-opacity:1;paint-order:normal"
       d="m 238.70345,243.89198 c -1.47839,-3.49588 -2.62657,-7.16605 -3.40513,-10.97083 -0.77864,-3.8044 -1.18745,-7.74358 -1.18745,-11.77864 0,-4.03482 0.40881,-7.97414 1.18745,-11.77854 0.77856,-3.8047 1.92674,-7.47462 3.40513,-10.97067"
       id="path4724"
       inkscape:connector-curvature="0"
       sodipodi:nodetypes="csssc" />
    <path
       style="opacity:1;fill:none;fill-opacity:0.31372549;stroke:#000000;stroke-width:0.66854668;stroke-linecap:square;stroke-linejoin:miter;stroke-miterlimit:4;stroke-dasharray:1.33709239, 1.33709239;stroke-dashoffset:0;stroke-opacity:1;paint-order:normal"
       d="m 219.65771,250.0871 c -1.86726,-4.41449 -3.31711,-9.04889 -4.30037,-13.85301 -0.98286,-4.80426 -1.49912,-9.77837 -1.49912,-14.873 0,-5.09469 0.51626,-10.06878 1.49912,-14.873 0.98326,-4.8042 2.43311,-9.43863 4.30037,-13.85312"
       id="path4724-8"
       inkscape:connector-curvature="0"
       sodipodi:nodetypes="csssc" />
    <path
       style="opacity:1;fill:none;fill-opacity:0.31372549;stroke:#000000;stroke-width:0.66833574;stroke-linecap:square;stroke-linejoin:miter;stroke-miterlimit:4;stroke-dasharray:0.66833558, 2.00500673999999979;stroke-dashoffset:0;stroke-opacity:1;paint-order:normal"
       d="m 256.40912,236.03307 c -0.9678,-2.28815 -1.71938,-4.6903 -2.22915,-7.18038 -0.50951,-2.49055 -0.77685,-5.06907 -0.77685,-7.7101 0,-2.64114 0.26734,-5.21939 0.77685,-7.70987 0.50977,-2.49033 1.26135,-4.89239 2.22915,-7.18055"
       id="path4724-0"
       inkscape:connector-curvature="0"
       sodipodi:nodetypes="csssc" />
    <path
       style="opacity:1;fill:none;fill-opacity:0.31372549;stroke:#000000;stroke-width:0.66833574;stroke-linecap:square;stroke-linejoin:miter;stroke-miterlimit:4;stroke-dasharray:0.66833558, 2.00500673999999979;stroke-dashoffset:0;stroke-opacity:1;paint-order:normal"
       d="m 273.83165,230.60264 c -0.60067,-1.42008 -1.06712,-2.91087 -1.38333,-4.4563 -0.31627,-1.5457 -0.48228,-3.1462 -0.48228,-4.78525 0,-1.63914 0.16611,-3.2394 0.48228,-4.78536 0.31621,-1.54543 0.78266,-3.03623 1.38333,-4.45646"
       id="path4724-0-4"
       inkscape:connector-curvature="0"
       sodipodi:nodetypes="csssc" />
    <path
       style="opacity:1;fill:none;fill-opacity:0.31372549;stroke:#000000;stroke-width:0.64948356;stroke-linecap:square;stroke-linejoin:miter;stroke-miterlimit:4;stroke-dasharray:0.6494839, 1.94845175999999998;stroke-dashoffset:0;stroke-opacity:1;paint-order:normal"
       d="m 288.99097,226.7433 c -0.36159,-0.85482 -0.64223,-1.75167 -0.83244,-2.68165 -0.19015,-0.92969 -0.29001,-1.89248 -0.29001,-2.87848 0,-0.98632 0.0999,-1.94922 0.29001,-2.8792 0.19021,-0.92998 0.47085,-1.82683 0.83244,-2.68119"
       id="path4724-0-4-2"
       inkscape:connector-curvature="0"
       sodipodi:nodetypes="csssc" />
    <path
       style="opacity:1;fill:none;fill-opacity:0.31372549;stroke:#ff0000;stroke-width:1.24755919;stroke-linecap:square;stroke-linejoin:miter;stroke-miterlimit:4;stroke-dasharray:none;stroke-dashoffset:0;stroke-opacity:1;paint-order:normal"
       d="m 219.65771,250.08749 c -0.93366,-2.20759 -4.6272,-6.5385 -5.34607,-8.84914 -0.71887,-2.31063 3.60596,-5.62515 3.11412,-8.02731 -0.49132,-2.40178 -5.4012,-3.6531 -5.65328,-6.13399 -0.25175,-2.48096 4.39319,-4.99817 4.39319,-7.54549 0,-2.54741 -3.84936,-4.66699 -3.5973,-7.14774 0.25188,-2.48098 4.76384,-4.92555 5.25531,-7.32773 0.49166,-2.40184 -3.75364,-5.23891 -3.03467,-7.54982 0.71862,-2.31087 3.93504,-2.66336 4.8687,-4.87091"
       id="path4724-8-6"
       inkscape:connector-curvature="0"
       sodipodi:nodetypes="csssssssc"
       inkscape:label="path4724-8-6" />
    <path
       style="opacity:1;fill:none;fill-opacity:0.31372549;stroke:#ff0000;stroke-width:0.96989238;stroke-linecap:square;stroke-linejoin:miter;stroke-miterlimit:4;stroke-dasharray:none;stroke-dashoffset:0;stroke-opacity:1;paint-order:normal"
       d="m 238.70303,243.05745 c -0.72553,-1.71573 -3.59707,-5.08275 -4.15585,-6.87923 -0.55888,-1.79659 2.80329,-4.37316 2.421,-6.24064 -0.382,-1.86736 -4.19915,-2.83998 -4.39496,-4.76909 -0.19604,-1.92875 3.41532,-3.88544 3.41532,-5.86592 0,-1.98032 -2.99261,-3.62813 -2.79677,-5.557 0.19574,-1.92866 3.7036,-3.82926 4.08586,-5.69675 0.3819,-1.86749 -2.91808,-4.07284 -2.35926,-5.86952 0.55847,-1.79649 3.05913,-2.07064 3.78466,-3.7865"
       id="path4724-8-6-2"
       inkscape:connector-curvature="0"
       sodipodi:nodetypes="csssssssc" />
    <path
       style="opacity:1;fill:none;fill-opacity:0.31372549;stroke:#ff0000;stroke-width:0.63801438;stroke-linecap:square;stroke-linejoin:miter;stroke-miterlimit:4;stroke-dasharray:none;stroke-dashoffset:0;stroke-opacity:1;paint-order:normal"
       d="m 256.40912,236.03307 c -0.47737,-1.12894 -2.3664,-3.34348 -2.7339,-4.52543 -0.36758,-1.18178 1.84388,-2.87682 1.59275,-4.10523 -0.25152,-1.22818 -2.76258,-1.86813 -2.89143,-3.13681 -0.12858,-1.26875 2.24659,-2.5561 2.24659,-3.85908 0,-1.30262 -1.96837,-2.38644 -1.83975,-3.65517 0.12818,-1.26913 2.43647,-2.5189 2.68799,-3.74749 0.25147,-1.22846 -1.9199,-2.6794 -1.55213,-3.86118 0.36779,-1.18189 2.01251,-1.36211 2.48988,-2.49084"
       id="path4724-8-6-22"
       inkscape:connector-curvature="0"
       sodipodi:nodetypes="csssssssc" />
    <path
       style="opacity:1;fill:none;fill-opacity:0.31372549;stroke:#ff0000;stroke-width:0.40867916;stroke-linecap:square;stroke-linejoin:miter;stroke-miterlimit:4;stroke-dasharray:none;stroke-dashoffset:0;stroke-opacity:1;paint-order:normal"
       d="m 273.83165,230.60264 c -0.30572,-0.72285 -1.51571,-2.14138 -1.75103,-2.89834 -0.2358,-0.7572 1.18115,-1.8428 1.02001,-2.6299 -0.16134,-0.78669 -1.76973,-1.19645 -1.85208,-2.0093 -0.0817,-0.81255 1.43914,-1.63726 1.43914,-2.47194 0,-0.83422 -1.2609,-1.52866 -1.17829,-2.34124 0.0818,-0.81287 1.56045,-1.61358 1.72159,-2.40034 0.16162,-0.78706 -1.22954,-1.71656 -0.9943,-2.4733 0.23546,-0.75696 1.28924,-0.87254 1.59496,-1.59549"
       id="path4724-8-6-0"
       inkscape:connector-curvature="0"
       sodipodi:nodetypes="csssssssc" />
    <path
       style="opacity:1;fill:none;fill-opacity:0.31372549;stroke:#ff0000;stroke-width:0.24515736;stroke-linecap:square;stroke-linejoin:miter;stroke-miterlimit:4;stroke-dasharray:none;stroke-dashoffset:0;stroke-opacity:1;paint-order:normal"
       d="m 288.99097,226.91263 c -0.18346,-0.43407 -0.90936,-1.28516 -1.05083,-1.73911 -0.13964,-0.45403 0.70878,-1.10543 0.61221,-1.57732 -0.0981,-0.47204 -1.06153,-0.71781 -1.11094,-1.20539 -0.0511,-0.48749 0.86316,-0.98234 0.86316,-1.48283 0,-0.50054 -0.75643,-0.91721 -0.70707,-1.40456 0.0511,-0.48779 0.93652,-0.96787 1.03307,-1.43975 0.0978,-0.47231 -0.73782,-1.0297 -0.59634,-1.48383 0.13964,-0.45405 0.77328,-0.52349 0.95674,-0.95706"
       id="path4724-8-6-5"
       inkscape:connector-curvature="0"
       sodipodi:nodetypes="csssssssc" />
  </g>
</svg>
